<svg width="32" height="32" viewBox="0 0 64 64" fill="none" xmlns="http://www.w3.org/2000/svg">
  <path
    d="M26.4993 5.00298C28.2307 -0.334334 35.7693 -0.334325 37.5007 5.00299L41.0898 16.067C41.8641 18.4539 44.0849 20.07 46.5906 20.07H58.2051C63.808 20.07 66.1376 27.2513 61.6047 30.5499L52.2084 37.3879C50.1812 38.8631 49.333 41.4779 50.1073 43.8648L53.6964 54.9288C55.4278 60.2661 49.3289 64.7044 44.796 61.4058L35.3996 54.5679C33.3725 53.0927 30.6275 53.0927 28.6004 54.5679L19.204 61.4058C14.6711 64.7044 8.57224 60.2661 10.3036 54.9288L13.8927 43.8648C14.667 41.4779 13.8188 38.8631 11.7916 37.3879L2.39526 30.5499C-2.13759 27.2513 0.19199 20.07 5.7949 20.07H17.4095C19.9152 20.07 22.1359 18.4539 22.9102 16.067L26.4993 5.00298Z"
    fill="#B052C8" />
</svg>